<?xml version="1.0" standalone="no"?><!DOCTYPE svg PUBLIC "-//W3C//DTD SVG 1.1//EN" "http://www.w3.org/Graphics/SVG/1.1/DTD/svg11.dtd"><svg t="1530956537388" class="icon" style="" viewBox="0 0 1024 1024" version="1.1" xmlns="http://www.w3.org/2000/svg" p-id="3418" xmlns:xlink="http://www.w3.org/1999/xlink" width="32" height="32"><defs><style type="text/css"></style></defs><path d="M512 64.9c247.6 0 448.4 200.7 448.4 448.4S759.6 961.6 512 961.6c-247.6 0-448.4-200.7-448.4-448.4S264.4 64.9 512 64.9z" fill="#F8F8F8" p-id="3419" data-spm-anchor-id="a313x.7781069.0.i3" class=""></path><path d="M298.9 733.3v-10c0-53.2 18.5-104.8 52.2-145.4 27.2-32.8 63-56.9 102.6-69.6-31.3-19.9-58.5-54.5-58.5-97.7 0-64.8 52.4-117.6 116.9-117.6S629 345.7 629 410.6c0 43.2-27.2 77.8-58.5 97.7C610 521 645.8 545.1 673 578c33.6 40.6 52.2 92.2 52.2 145.4v10h-20.7l-405.6-0.1z" fill="#FFFFFF" p-id="3420" data-spm-anchor-id="a313x.7781069.0.i5" class="selected"></path><path d="M512 303.1c59 0 106.9 48.2 106.9 107.6 0 46.4-36.2 85.8-77.1 100.9 98.1 17.8 173.3 105.8 173.3 211.8H308.9c0-106 75.2-194 173.3-211.8-40.9-15.1-77.1-54.5-77.1-100.9 0-59.5 47.9-107.6 106.9-107.6m0-20c-33.9 0-65.8 13.3-89.8 37.4-23.9 24.1-37.1 56.1-37.1 90.2 0 26.5 9.6 52.3 27.7 74.7 5.9 7.3 12.5 14 19.8 20.1-34.2 14.2-65 36.9-89.2 66.1-17.2 20.8-30.7 44.2-40 69.6-9.6 26.3-14.5 53.9-14.5 82.2v20H735.2v-20c0-28.3-4.9-55.9-14.5-82.2-9.3-25.4-22.7-48.8-40-69.6-24.3-29.3-55-51.9-89.2-66.1 7.3-6.1 13.9-12.8 19.8-20.1 18.1-22.4 27.7-48.2 27.7-74.7 0-34.1-13.2-66.1-37.1-90.2-24.1-24.1-56-37.4-89.9-37.4z" fill="#CCCCCC" p-id="3421"></path></svg>