<!-- Generated by IcoMoon.io -->
<svg version="1.1" xmlns="http://www.w3.org/2000/svg" width="1024" height="1024" viewBox="0 0 1024 1024">
<title></title>
<g id="icomoon-ignore">
</g>
<path fill="#eee" d="M674.1 930.351c4.879-0.006 9.521-1.011 13.736-2.82l-0.227 0.087c167.318-70.817 275.453-233.955 275.453-415.618 0-160.496-84.281-301.701-210.892-381.667h37.43c19.155 0 34.697-15.541 34.697-34.697s-15.541-34.697-34.697-34.697h-277.598c-19.155 0-34.697 15.541-34.697 34.697s15.541 34.697 34.697 34.697c210.441 0 381.667 171.226 381.667 381.667 0 153.742-91.509 291.785-233.12 351.691-17.642 7.477-25.888 27.83-18.433 45.494 5.602 13.215 18.454 21.166 31.985 21.166zM234.402 963.060h277.598c19.155 0 34.697-15.541 34.697-34.697s-15.541-34.697-34.697-34.697c-210.441 0-381.667-171.226-381.667-381.667 0-145.564 84.754-280.558 215.93-343.897 17.258-8.336 24.487-29.072 16.151-46.33-8.336-17.236-29.050-24.554-46.33-16.151-154.984 74.837-255.145 234.34-255.145 406.379 0 160.496 84.281 301.701 210.892 381.667h-37.43c-19.155 0-34.697 15.541-34.697 34.697 0.002 19.155 15.543 34.696 34.698 34.696z"></path>
</svg>
