<?xml version="1.0" standalone="no"?><!DOCTYPE svg PUBLIC "-//W3C//DTD SVG 1.1//EN" "http://www.w3.org/Graphics/SVG/1.1/DTD/svg11.dtd"><svg t="1528177929718" class="icon" style="" viewBox="0 0 1024 1024" version="1.1" xmlns="http://www.w3.org/2000/svg" p-id="8515" xmlns:xlink="http://www.w3.org/1999/xlink" width="200" height="200"><defs><style type="text/css"></style></defs><path d="M349.900112 930.35111a34.95614 34.95614 0 0 1-13.508665-2.733251C169.07372 856.800977 60.938907 693.662433 60.938907 512c0-160.496367 84.280522-301.701366 210.892152-381.666606h-37.430495c-19.155269 0-34.697243-15.540951-34.697243-34.697243s15.540951-34.697243 34.697243-34.697244h277.598413c19.155269 0 34.697243 15.540951 34.697243 34.697244s-15.540951 34.697243-34.697243 34.697243c-210.440873 0-381.666606 171.225733-381.666606 381.666606 0 153.741523 91.509157 291.784506 233.120408 351.690898 17.641799 7.477298 25.8876 27.829835 18.432815 45.494147-5.601578 13.214976-18.454304 21.166065-31.985482 21.166065zM789.598412 963.060069H512c-19.155269 0-34.697243-15.540951-34.697243-34.697243 0-19.155269 15.540951-34.697243 34.697243-34.697243 210.440873 0 381.666606-171.225733 381.666606-381.666606 0-145.564283-84.754313-280.557814-215.929887-343.897398-17.258059-8.335852-24.486694-29.072129-16.150842-46.330188 8.335852-17.235546 29.049616-24.554232 46.330188-16.150842 154.983817 74.837452 255.145028 234.340189 255.145028 406.379451 0 160.496367-84.280522 301.701366-210.892152 381.666606h37.430495c19.155269 0 34.697243 15.540951 34.697243 34.697243-0.002047 19.155269-15.542998 34.69622-34.698267 34.69622z" fill="#eeeeee" p-id="8516"></path></svg>